<mxfile host="app.diagrams.net" modified="2024-05-29T19:46:15.366Z" agent="Mozilla/5.0 (Windows NT 10.0; Win64; x64) AppleWebKit/537.36 (KHTML, like Gecko) Chrome/122.0.0.0 Safari/537.36" etag="liogGKKWR46gt_uEm_5w" version="24.4.10" type="device">
  <diagram name="PÃ¡gina-1" id="WgDGOTF1qHp4bBE8-xJA">
    <mxGraphModel dx="880" dy="468" grid="1" gridSize="10" guides="1" tooltips="1" connect="1" arrows="1" fold="1" page="1" pageScale="1" pageWidth="827" pageHeight="1169" math="0" shadow="0">
      <root>
        <mxCell id="0" />
        <mxCell id="1" parent="0" />
        <mxCell id="MUSg7AdWQjVzhc9dp-yb-1" value="Escola" style="swimlane;childLayout=stackLayout;horizontal=1;startSize=50;horizontalStack=0;rounded=1;fontSize=14;fontStyle=0;strokeWidth=2;resizeParent=0;resizeLast=1;shadow=0;dashed=0;align=center;arcSize=4;whiteSpace=wrap;html=1;" vertex="1" parent="1">
          <mxGeometry x="50" y="30" width="160" height="200" as="geometry" />
        </mxCell>
        <mxCell id="MUSg7AdWQjVzhc9dp-yb-2" value="cnpj&amp;nbsp; PK&lt;div&gt;nome&lt;/div&gt;&lt;div&gt;endereco&lt;/div&gt;&lt;div&gt;cidade&lt;/div&gt;&lt;div&gt;estado&lt;/div&gt;&lt;div&gt;telefone&lt;/div&gt;" style="align=left;strokeColor=none;fillColor=none;spacingLeft=4;fontSize=12;verticalAlign=top;resizable=0;rotatable=0;part=1;html=1;" vertex="1" parent="MUSg7AdWQjVzhc9dp-yb-1">
          <mxGeometry y="50" width="160" height="150" as="geometry" />
        </mxCell>
        <mxCell id="MUSg7AdWQjVzhc9dp-yb-3" value="turma" style="swimlane;childLayout=stackLayout;horizontal=1;startSize=50;horizontalStack=0;rounded=1;fontSize=14;fontStyle=0;strokeWidth=2;resizeParent=0;resizeLast=1;shadow=0;dashed=0;align=center;arcSize=4;whiteSpace=wrap;html=1;" vertex="1" parent="1">
          <mxGeometry x="310" y="30" width="160" height="200" as="geometry" />
        </mxCell>
        <mxCell id="MUSg7AdWQjVzhc9dp-yb-4" value="codigo&amp;nbsp; PK&lt;div&gt;nome&lt;/div&gt;&lt;div&gt;periodo&lt;/div&gt;&lt;div&gt;cnpjescola&amp;nbsp; FK&lt;/div&gt;&lt;div&gt;codigosala&amp;nbsp; FK&lt;/div&gt;" style="align=left;strokeColor=none;fillColor=none;spacingLeft=4;fontSize=12;verticalAlign=top;resizable=0;rotatable=0;part=1;html=1;" vertex="1" parent="MUSg7AdWQjVzhc9dp-yb-3">
          <mxGeometry y="50" width="160" height="150" as="geometry" />
        </mxCell>
        <mxCell id="MUSg7AdWQjVzhc9dp-yb-5" value="professor" style="swimlane;childLayout=stackLayout;horizontal=1;startSize=50;horizontalStack=0;rounded=1;fontSize=14;fontStyle=0;strokeWidth=2;resizeParent=0;resizeLast=1;shadow=0;dashed=0;align=center;arcSize=4;whiteSpace=wrap;html=1;" vertex="1" parent="1">
          <mxGeometry x="50" y="280" width="160" height="200" as="geometry" />
        </mxCell>
        <mxCell id="MUSg7AdWQjVzhc9dp-yb-6" value="cpf&amp;nbsp; PK&lt;div&gt;nome&lt;/div&gt;&lt;div&gt;endereco&lt;/div&gt;&lt;div&gt;cidade&lt;/div&gt;&lt;div&gt;estado&lt;/div&gt;&lt;div&gt;telefone&lt;/div&gt;&lt;div&gt;codigoturma&amp;nbsp; FK&lt;/div&gt;" style="align=left;strokeColor=none;fillColor=none;spacingLeft=4;fontSize=12;verticalAlign=top;resizable=0;rotatable=0;part=1;html=1;" vertex="1" parent="MUSg7AdWQjVzhc9dp-yb-5">
          <mxGeometry y="50" width="160" height="150" as="geometry" />
        </mxCell>
        <mxCell id="MUSg7AdWQjVzhc9dp-yb-7" value="disciplina" style="swimlane;childLayout=stackLayout;horizontal=1;startSize=50;horizontalStack=0;rounded=1;fontSize=14;fontStyle=0;strokeWidth=2;resizeParent=0;resizeLast=1;shadow=0;dashed=0;align=center;arcSize=4;whiteSpace=wrap;html=1;" vertex="1" parent="1">
          <mxGeometry x="310" y="280" width="160" height="200" as="geometry" />
        </mxCell>
        <mxCell id="MUSg7AdWQjVzhc9dp-yb-8" value="codigo&amp;nbsp; PK&lt;div&gt;nome&lt;/div&gt;&lt;div&gt;ementa&lt;/div&gt;&lt;div&gt;nrhoras&lt;/div&gt;&lt;div&gt;codigoprofessor&amp;nbsp; FK&lt;/div&gt;" style="align=left;strokeColor=none;fillColor=none;spacingLeft=4;fontSize=12;verticalAlign=top;resizable=0;rotatable=0;part=1;html=1;" vertex="1" parent="MUSg7AdWQjVzhc9dp-yb-7">
          <mxGeometry y="50" width="160" height="150" as="geometry" />
        </mxCell>
        <mxCell id="MUSg7AdWQjVzhc9dp-yb-9" value="salas" style="swimlane;childLayout=stackLayout;horizontal=1;startSize=50;horizontalStack=0;rounded=1;fontSize=14;fontStyle=0;strokeWidth=2;resizeParent=0;resizeLast=1;shadow=0;dashed=0;align=center;arcSize=4;whiteSpace=wrap;html=1;" vertex="1" parent="1">
          <mxGeometry x="570" y="140" width="160" height="200" as="geometry" />
        </mxCell>
        <mxCell id="MUSg7AdWQjVzhc9dp-yb-10" value="codigo&amp;nbsp; PK&lt;div&gt;capacidade&lt;/div&gt;&lt;div&gt;localizacao&lt;/div&gt;" style="align=left;strokeColor=none;fillColor=none;spacingLeft=4;fontSize=12;verticalAlign=top;resizable=0;rotatable=0;part=1;html=1;" vertex="1" parent="MUSg7AdWQjVzhc9dp-yb-9">
          <mxGeometry y="50" width="160" height="150" as="geometry" />
        </mxCell>
        <mxCell id="MUSg7AdWQjVzhc9dp-yb-13" value="" style="edgeStyle=entityRelationEdgeStyle;fontSize=12;html=1;endArrow=ERoneToMany;rounded=0;exitX=1.019;exitY=0.453;exitDx=0;exitDy=0;exitPerimeter=0;entryX=0;entryY=0.5;entryDx=0;entryDy=0;" edge="1" parent="1" source="MUSg7AdWQjVzhc9dp-yb-2" target="MUSg7AdWQjVzhc9dp-yb-4">
          <mxGeometry width="100" height="100" relative="1" as="geometry">
            <mxPoint x="390" y="290" as="sourcePoint" />
            <mxPoint x="490" y="190" as="targetPoint" />
          </mxGeometry>
        </mxCell>
        <mxCell id="MUSg7AdWQjVzhc9dp-yb-14" value="" style="edgeStyle=entityRelationEdgeStyle;fontSize=12;html=1;endArrow=ERoneToMany;startArrow=ERoneToMany;rounded=0;exitX=1;exitY=0.5;exitDx=0;exitDy=0;entryX=0;entryY=0.25;entryDx=0;entryDy=0;" edge="1" parent="1" source="MUSg7AdWQjVzhc9dp-yb-4" target="MUSg7AdWQjVzhc9dp-yb-10">
          <mxGeometry width="100" height="100" relative="1" as="geometry">
            <mxPoint x="440" y="260" as="sourcePoint" />
            <mxPoint x="540" y="160" as="targetPoint" />
          </mxGeometry>
        </mxCell>
        <mxCell id="MUSg7AdWQjVzhc9dp-yb-16" value="" style="edgeStyle=entityRelationEdgeStyle;fontSize=12;html=1;endArrow=ERoneToMany;startArrow=ERoneToMany;rounded=0;exitX=1.006;exitY=0.433;exitDx=0;exitDy=0;exitPerimeter=0;entryX=0;entryY=0.75;entryDx=0;entryDy=0;" edge="1" parent="1" source="MUSg7AdWQjVzhc9dp-yb-6" target="MUSg7AdWQjVzhc9dp-yb-4">
          <mxGeometry width="100" height="100" relative="1" as="geometry">
            <mxPoint x="390" y="260" as="sourcePoint" />
            <mxPoint x="490" y="160" as="targetPoint" />
          </mxGeometry>
        </mxCell>
        <mxCell id="MUSg7AdWQjVzhc9dp-yb-17" value="" style="edgeStyle=entityRelationEdgeStyle;fontSize=12;html=1;endArrow=ERoneToMany;startArrow=ERoneToMany;rounded=0;exitX=1.013;exitY=0.66;exitDx=0;exitDy=0;exitPerimeter=0;entryX=0;entryY=0.25;entryDx=0;entryDy=0;" edge="1" parent="1" source="MUSg7AdWQjVzhc9dp-yb-6" target="MUSg7AdWQjVzhc9dp-yb-8">
          <mxGeometry width="100" height="100" relative="1" as="geometry">
            <mxPoint x="390" y="360" as="sourcePoint" />
            <mxPoint x="490" y="260" as="targetPoint" />
          </mxGeometry>
        </mxCell>
      </root>
    </mxGraphModel>
  </diagram>
</mxfile>
